PathFileType	4	(X/Y/Z)	./resultDataOpenSim/trcMotMarkerGrf/sub06/qtm-14-07.trc
DataRate	CameraRate	NumFrames	NumMarkers	Units	OrigDataRate	OrigDataStartFrame	OrigNumFrames
250.000000	250.000000	11	24	m	250.000000	462	527
Frame#	Time	L.Toe.Tip			R.Toe.Tip			L.Ankle.Lat			R.Ankle.Lat			L.Ankle.Med			R.Ankle.Med			L.Heel			R.Heel			L.Knee.Lat			R.Knee.Lat			L.Knee.Med			R.Knee.Med			L.Thigh.Upper			R.Thigh.Upper			L.ASIS			R.ASIS			V.Sacral			L.Acromium			R.Acromium			C7			L.Elbow			R.Elbow			L.Wrist.Lat			R.Wrist.Lat
		X1	Y1	Z1	X2	Y2	Z2	X3	Y3	Z3	X4	Y4	Z4	X5	Y5	Z5	X6	Y6	Z6	X7	Y7	Z7	X8	Y8	Z8	X9	Y9	Z9	X10	Y10	Z10	X11	Y11	Z11	X12	Y12	Z12	X13	Y13	Z13	X14	Y14	Z14	X15	Y15	Z15	X16	Y16	Z16	X17	Y17	Z17	X18	Y18	Z18	X19	Y19	Z19	X20	Y20	Z20	X21	Y21	Z21	X22	Y22	Z22	X23	Y23	Z23	X24	Y24	Z24

462	1.844	1.7072685	0.033888306	-0.050945985	1.2401976	0.089660323	0.11433482	1.5826131	0.066519787	-0.080673555	1.2235251	0.22836285	0.13939554	1.5823106	0.08173915	0.0063217174	1.2683542	0.21895756	0.062471732	1.505783	0.039433349	-0.040450558	1.198724	0.26885107	0.072427464	1.6566842	0.43504203	-0.09466132	1.5530074	0.41810002	0.1897085	1.6211052	0.43489771	0.021756891	1.5569706	0.39710548	0.056533052	1.5526076	0.81782824	-0.16640004	1.5109931	0.76762913	0.15818568	1.6110937	0.86039405	-0.10793561	1.577848	0.84039496	0.13774947	1.4056347	0.92217066	-0.0025031614	1.5247452	1.3237839	-0.18656597	1.5031778	1.3268143	0.17562952	1.4377683	1.3630365	-0.012646306	1.4376691	1.0190294	-0.23054005	1.4480512	1.0092656	0.25355609	1.5481989	0.80259969	-0.27436275	1.6629113	0.8835857	0.25467899
463	1.848	1.7072277	0.033883934	-0.050918516	1.2562494	0.090330904	0.1156435	1.5825814	0.066636285	-0.080665787	1.2368074	0.22888477	0.13956392	1.5822227	0.081814932	0.0063706207	1.2814085	0.21994069	0.062985843	1.5057613	0.039551538	-0.040320191	1.21011	0.26821057	0.073048653	1.6577146	0.43511585	-0.094309928	1.56395	0.42093064	0.19012532	1.6212644	0.4350005	0.02201239	1.5681373	0.39948607	0.056868721	1.5568112	0.81856369	-0.16665244	1.516193	0.76970659	0.158444	1.6158993	0.86134707	-0.10845266	1.5831895	0.84237174	0.13750951	1.4106915	0.92371328	-0.0026621549	1.5303856	1.3256414	-0.18657945	1.5073357	1.3285939	0.17570738	1.4430278	1.3645244	-0.012780146	1.4449499	1.0200379	-0.23083325	1.4510601	1.0109715	0.25257928	1.5594529	0.80488793	-0.27358107	1.6635129	0.88149216	0.2554474
464	1.852	1.7071899	0.033882121	-0.050893267	1.2724168	0.09086702	0.11693074	1.5825735	0.06675193	-0.080569097	1.2503028	0.22923795	0.13977396	1.58217	0.081911868	0.0064158723	1.2946027	0.22062987	0.063570454	1.5057492	0.039689483	-0.040114452	1.2213919	0.26733351	0.074202817	1.6586774	0.43520182	-0.093959982	1.5748483	0.42380876	0.1904943	1.6217046	0.43510049	0.022282408	1.5790139	0.40193498	0.057215375	1.5609706	0.81927063	-0.16686344	1.5220021	0.77168093	0.1586733	1.6207274	0.86233087	-0.10900137	1.5886025	0.84437304	0.13722206	1.4158748	0.92523246	-0.0028115239	1.5359931	1.3275323	-0.18656955	1.5110325	1.3304373	0.17570207	1.4482809	1.366006	-0.01288078	1.4522012	1.0210395	-0.23129118	1.4538741	1.0127176	0.25163755	1.5707089	0.80727204	-0.27278731	1.6640187	0.87949171	0.25624893
465	1.856	1.7071594	0.033883753	-0.05087105	1.2886825	0.091262836	0.11819963	1.58257	0.066878353	-0.080442681	1.2638757	0.22935128	0.13999855	1.582172	0.082035372	0.0064554493	1.3077972	0.22101745	0.063975349	1.5057408	0.03983628	-0.039927334	1.2327832	0.26626332	0.075450442	1.6595772	0.43528646	-0.093617138	1.5857033	0.42672171	0.19081346	1.6223153	0.43518199	0.022545984	1.5897994	0.40443744	0.05754448	1.5651385	0.81996718	-0.16704394	1.5280622	0.77366569	0.15896653	1.6256194	0.86334249	-0.10957583	1.5941097	0.84639194	0.13689061	1.4216076	0.92675387	-0.0030626076	1.5415549	1.3294148	-0.18653724	1.5147315	1.3322489	0.17561944	1.4535285	1.3674665	-0.012961581	1.4593973	1.0220185	-0.23174552	1.4566085	1.0144896	0.25072421	1.5819921	0.80974271	-0.27197424	1.6644443	0.87758602	0.25707893
466	1.86	1.7071407	0.033889459	-0.050853207	1.3050229	0.091513886	0.11945883	1.5825627	0.067018516	-0.080328406	1.2773919	0.22913398	0.14022846	1.5822123	0.082171853	0.0064884305	1.3208972	0.22112722	0.064055009	1.5057407	0.039985783	-0.039791396	1.2446312	0.26502621	0.076202886	1.6604181	0.43536256	-0.093285031	1.5965278	0.4296581	0.19107777	1.6229429	0.43522941	0.022792389	1.6007766	0.40699566	0.057820481	1.5694207	0.82066684	-0.16718291	1.5331976	0.77600017	0.15967214	1.6305498	0.86437029	-0.11015113	1.5996617	0.84841944	0.13650954	1.4278811	0.92828409	-0.0033971227	1.5470725	1.331257	-0.18649079	1.5189037	1.3339371	0.17550423	1.4587753	1.3688992	-0.013036271	1.4665939	1.0229734	-0.23216593	1.4593786	1.0162905	0.24983575	1.5933632	0.81228896	-0.27113229	1.6647946	0.8757695	0.25792339
467	1.864	1.7071336	0.033897797	-0.05084182	1.3214173	0.091619229	0.12071807	1.5825536	0.067167549	-0.080237853	1.2908131	0.22853727	0.14048472	1.5822126	0.082286671	0.006515926	1.3339582	0.22098205	0.06393389	1.5057542	0.040135468	-0.039690803	1.2570909	0.26358843	0.076237049	1.6612051	0.43542904	-0.092967358	1.6073225	0.43260063	0.1912884	1.6235316	0.4352493	0.023030192	1.6120581	0.40963423	0.058020162	1.5739572	0.82136859	-0.16725391	1.5362077	0.77902488	0.16115335	1.6354637	0.86540322	-0.11070629	1.6051754	0.85044877	0.13606619	1.4341234	0.92977737	-0.0036546321	1.5525575	1.3330525	-0.18643755	1.5236179	1.3354856	0.17538541	1.464026	1.3703034	-0.013106098	1.4738403	1.0239063	-0.23257738	1.4621911	1.0181395	0.24896024	1.6048745	0.81490254	-0.27025569	1.6650731	0.8740298	0.25878097
468	1.868	1.7071326	0.033905688	-0.050837666	1.3378745	0.091586888	0.12197607	1.5825435	0.067317884	-0.080163469	1.3042623	0.22757413	0.14080186	1.5820596	0.082341141	0.0065432514	1.34711	0.22059861	0.063852466	1.5057783	0.040284653	-0.039596379	1.2699958	0.26188411	0.075778027	1.6619409	0.43548578	-0.092667953	1.6180641	0.43553249	0.19145594	1.6240874	0.43525458	0.023271634	1.6235778	0.41239647	0.058150902	1.5788125	0.82206873	-0.16724253	1.5370357	0.78273478	0.16339743	1.6403273	0.86643629	-0.11123395	1.6105649	0.85248068	0.13554421	1.439826	0.93115736	-0.0037225025	1.5580211	1.3348104	-0.18638053	1.5286503	1.3369305	0.17526498	1.4692804	1.3716748	-0.013162404	1.4811544	1.0248187	-0.2330038	1.4650423	1.020045	0.24808602	1.616492	0.81758054	-0.26935004	1.6652934	0.87235602	0.25968174
469	1.872	1.7071325	0.033911237	-0.050838189	1.3544517	0.091443655	0.12321888	1.5825304	0.067464254	-0.080094912	1.3179518	0.22628432	0.14121684	1.5817195	0.082334063	0.0065788734	1.3604324	0.21999536	0.063947012	1.5058012	0.040437917	-0.039483759	1.2830633	0.25988594	0.07518002	1.6626198	0.4355287	-0.092392107	1.6287251	0.43844823	0.19159341	1.6246385	0.43525252	0.023526228	1.6353006	0.41532144	0.058235523	1.5837878	0.82277772	-0.16718413	1.5372107	0.78665006	0.16586895	1.6451396	0.86746968	-0.11172906	1.615765	0.85451999	0.13493095	1.4450437	0.93238719	-0.0036494606	1.5634678	1.3365382	-0.18631958	1.5337952	1.3382995	0.1751393	1.4745345	1.3730078	-0.013203264	1.4885346	1.0257098	-0.23345447	1.4680332	1.0219829	0.24722537	1.6281242	0.82032261	-0.2684269	1.6654709	0.87074659	0.26067294
470	1.876	1.7071317	0.033914484	-0.050838704	1.3712317	0.091233278	0.12442893	1.5825135	0.067606167	-0.08002858	1.3319831	0.2247255	0.14173898	1.5813286	0.082329005	0.0066281632	1.3739274	0.2191909	0.06420785	1.5058101	0.040607401	-0.039344163	1.2961123	0.25761585	0.074686573	1.6632338	0.43555004	-0.092145041	1.639303	0.44135219	0.19170762	1.6252212	0.4352509	0.023804036	1.6470905	0.41840918	0.058280401	1.5885022	0.82351144	-0.16715001	1.5388026	0.79011893	0.1678622	1.6499204	0.86850506	-0.11218435	1.6208029	0.85656159	0.13424122	1.4501008	0.93349965	-0.0035305681	1.568899	1.3382378	-0.1862558	1.5389683	1.3395964	0.1750113	1.4797848	1.3742977	-0.013241391	1.495974	1.0265784	-0.23392908	1.4712408	1.0238971	0.24640625	1.6397248	0.82312709	-0.26748986	1.6656058	0.86920691	0.26176669
471	1.88	1.7071305	0.033916475	-0.050835647	1.3882261	0.090979057	0.12560558	1.582494	0.067746814	-0.079967305	1.3462003	0.22299131	0.14230982	1.5810693	0.082401305	0.0066876692	1.3875587	0.21819696	0.064560401	1.5058017	0.040805136	-0.039190027	1.3090954	0.25510082	0.074397763	1.6637953	0.4355448	-0.09192339	1.6498105	0.44425095	0.19179869	1.6258253	0.43526559	0.024108863	1.658514	0.42161091	0.058274258	1.5928617	0.82426483	-0.16715985	1.5428602	0.79277697	0.16901673	1.6546937	0.86954224	-0.11259584	1.6258522	0.85858586	0.13353369	1.4551741	0.93455521	-0.0034067474	1.5743177	1.3399058	-0.18619365	1.5441422	1.3408221	0.174885	1.4850301	1.3755409	-0.013293293	1.503467	1.027423	-0.23442459	1.4745558	1.0257272	0.2456368	1.65122	0.82600263	-0.26654182	1.6656813	0.8677415	0.26290533
472	1.884	1.7071303	0.033919116	-0.050828034	1.405316	0.09064693	0.12678033	1.5824746	0.067891134	-0.079916188	1.3603366	0.22116268	0.1428359	1.580947	0.082549103	0.0067482616	1.401289	0.21701661	0.06494281	1.5057869	0.041031403	-0.039045717	1.3220368	0.25234567	0.074315142	1.6643341	0.43551548	-0.091717123	1.6602303	0.44714594	0.19185986	1.6263389	0.43532736	0.024435177	1.6692638	0.42486826	0.05820587	1.5971848	0.82501298	-0.16715717	1.5490137	0.79470046	0.16946644	1.6594693	0.87057821	-0.11296319	1.6311056	0.86057238	0.13287308	1.4602699	0.93559468	-0.0032862797	1.5797291	1.3415354	-0.18613653	1.5492917	1.3419889	0.17475953	1.49027	1.3767367	-0.013364115	1.5110104	1.028242	-0.23493855	1.4777869	1.0274575	0.24489488	1.6624318	0.82897399	-0.26559492	1.6656853	0.86634985	0.26400982
